<?xml version="1.0"?>
<svg xmlns="http://www.w3.org/2000/svg" id="Capa_1" enable-background="new 0 0 509.671 509.671" height="512px" viewBox="0 0 509.671 509.671" width="512px"><g><g><g><path d="m500.39 384.234c-5.276-1.612-10.871 1.359-12.485 6.641-15.396 50.382-68.765 91.371-118.97 91.371-32.932 0-60.839-21.025-62.974-55.196.083-32.296 14.177-60.945 37.118-83.508 22.572-22.201 53.659-38.475 85.833-38.475 17.297 0 32.313 4.971 43.426 14.376 4.217 3.568 10.525 3.043 14.094-1.173 3.567-4.216 3.042-10.525-1.174-14.093-14.771-12.501-34.256-19.109-56.346-19.109-8.342 0-16.813.947-25.276 2.776v-202.895c0-20.4-16.597-36.997-36.997-36.997h-66.48v-8.988c0-17.391-14.148-31.539-31.539-31.539h-.142c-17.391 0-31.539 14.148-31.539 31.539v8.988h-77.835v-8.988c0-17.391-14.147-31.539-31.538-31.539h-.143c-17.391 0-31.538 14.148-31.538 31.539v8.988h-58.888c-20.4 0-36.997 16.597-36.997 36.997v315.088c0 20.4 16.597 36.998 36.997 36.998h249.954c2.038 12.445 6.764 23.895 14.121 33.823 15 20.241 39.101 31.388 67.862 31.388 28.495 0 58.511-10.971 84.517-30.892 25.909-19.847 44.938-46.353 53.58-74.634 1.615-5.282-1.359-10.872-6.641-12.486zm-243.452-345.27c0-6.362 5.177-11.539 11.539-11.539h.142c6.362 0 11.539 5.176 11.539 11.539l-.007 39.273c0 6.181-5.39 11.604-11.534 11.604-6.199 0-11.679-5.276-11.679-11.536zm-141.054 0c0-6.362 5.176-11.539 11.538-11.539h.143c6.362 0 11.538 5.176 11.538 11.539l-.001 39.343c0 6.144-5.39 11.534-11.57 11.534-6.19-.031-11.647-5.286-11.647-11.536v-39.341zm-95.884 45.985c0-9.372 7.625-16.997 16.997-16.997h58.887v10.354c.223 8.409 3.308 16.265 9.31 22.249 5.931 5.914 14.011 9.29 22.389 9.29 17.382-.01 31.521-14.154 31.521-31.539v-10.354h77.83v10.355c0 17.178 14.562 31.537 31.686 31.537 17.391 0 31.539-14.148 31.539-31.539v-10.353h66.48c9.372 0 16.997 7.625 16.997 16.997v66.487h-363.636zm0 315.088v-228.6h363.635v122.391c-50.181 19.23-94.514 67.905-97.672 123.207h-248.966c-9.372 0-16.997-7.625-16.997-16.998z" data-original="#000000" class="active-path" data-old_color="#000000" fill="#194251"/><path d="m402.468 339.123-14.599 47.992-25.959 15.912c-4.708 2.886-6.186 9.043-3.299 13.752 2.847 4.644 9.102 6.149 13.751 3.3l29.195-17.896c2.086-1.278 3.63-3.276 4.342-5.616l15.703-51.624c1.607-5.284-1.373-10.87-6.657-12.478-5.279-1.606-10.869 1.374-12.477 6.658z" data-original="#000000" class="active-path" data-old_color="#000000" fill="#194251"/><path d="m257.865 374.494h-130.155c-5.522 0-10 4.477-10 10s4.478 10 10 10h130.155c5.522 0 10-4.477 10-10s-4.477-10-10-10z" data-original="#000000" class="active-path" data-old_color="#000000" fill="#194251"/><path d="m93.29 380.666c-1.643-3.943-5.709-6.451-9.972-6.143-4.173.302-7.773 3.284-8.894 7.305-2.386 8.56 7.197 15.736 14.767 11.238 4.221-2.508 5.952-7.879 4.099-12.4z" data-original="#000000" class="active-path" data-old_color="#000000" fill="#194251"/><path d="m255.702 457.379h-87.288c-5.522 0-10 4.477-10 10s4.478 10 10 10h87.288c5.522 0 10-4.477 10-10s-4.477-10-10-10z" data-original="#000000" class="active-path" data-old_color="#000000" fill="#194251"/><path d="m280.024 252.691c-1.177-3.62-4.306-6.258-8.073-6.806l-40.565-5.895-18.141-36.759c-3.596-7.286-14.339-7.286-17.936 0l-18.142 36.759-40.565 5.895c-8.032 1.167-11.369 11.378-5.543 17.057l29.354 28.613-6.93 40.402c-1.371 7.995 7.303 14.331 14.51 10.542l36.284-19.075 36.283 19.075c7.199 3.786 15.882-2.544 14.51-10.542l-6.93-40.402 29.354-28.613c2.726-2.657 3.706-6.631 2.53-10.251zm-49.609 28.212c-2.356 2.297-3.432 5.607-2.876 8.851l4.394 25.613-23.002-12.093c-2.914-1.531-6.395-1.531-9.307 0l-23.003 12.093 4.394-25.613c.556-3.244-.52-6.554-2.876-8.851l-18.609-18.14 25.717-3.737c3.258-.473 6.073-2.519 7.53-5.47l11.501-23.304 11.5 23.303c1.457 2.952 4.272 4.998 7.53 5.471l25.717 3.737z" data-original="#000000" class="active-path" data-old_color="#000000" fill="#194251"/><path d="m509.479 343.776c-1.081-5.33-6.409-8.925-11.76-7.85-5.331 1.071-8.935 6.413-7.85 11.76 1.083 5.336 6.406 8.918 11.76 7.85 5.322-1.063 8.932-6.429 7.85-11.76z" data-original="#000000" class="active-path" data-old_color="#000000" fill="#194251"/></g></g></g> </svg>
