<?xml version="1.0" standalone="no"?>
<!DOCTYPE svg PUBLIC "-//W3C//DTD SVG 20010904//EN"
 "http://www.w3.org/TR/2001/REC-SVG-20010904/DTD/svg10.dtd">
<svg version="1.0" xmlns="http://www.w3.org/2000/svg"
 width="495.000000pt" height="495.000000pt" viewBox="0 0 495.000000 495.000000"
 preserveAspectRatio="xMidYMid meet">
<metadata>
Created by potrace 1.10, written by Peter Selinger 2001-2011
</metadata>
<g transform="translate(0.000000,495.000000) scale(0.100000,-0.100000)"
fill="#ffffff" stroke="none">
<path d="M816 2648 c-24 -13 -20 -55 5 -63 28 -9 324 -9 338 -1 15 10 14 53
-1 63 -18 11 -323 11 -342 1z"/>
<path d="M1446 2644 c-21 -21 -20 -28 11 -77 39 -60 44 -68 87 -148 64 -120
71 -132 88 -143 19 -12 48 7 48 31 0 9 -15 41 -34 72 -32 54 -64 110 -111 196
-49 91 -59 99 -89 69z"/>
<path d="M2318 2649 c-28 -16 -26 -159 2 -184 32 -29 47 -6 52 78 6 101 -10
132 -54 106z"/>
<path d="M2468 2494 c-90 -91 -164 -172 -166 -180 -4 -18 16 -44 33 -44 7 0
34 23 61 51 27 29 100 102 162 164 61 62 112 119 112 128 0 26 -11 47 -26 47
-7 0 -87 -75 -176 -166z"/>
<path d="M2856 2647 c-15 -11 -17 -32 -17 -172 0 -88 0 -165 0 -172 2 -23 38
-35 55 -18 22 22 22 338 0 360 -19 18 -16 18 -38 2z"/>
<path d="M2977 2642 c-39 -43 -5 -64 95 -60 83 3 106 22 74 57 -26 29 -144 31
-169 3z"/>
<path d="M3338 2646 c-16 -12 -18 -33 -18 -185 l0 -171 26 -12 c21 -10 27 -9
35 3 14 22 12 352 -3 367 -15 15 -19 15 -40 -2z"/>
<path d="M3456 2638 c-14 -20 -14 -24 1 -40 9 -10 27 -18 40 -18 40 0 63 -18
63 -50 0 -32 -31 -60 -66 -60 -23 0 -48 -23 -42 -38 7 -20 142 -162 153 -162
7 0 20 9 29 19 16 18 16 21 2 43 -8 12 -29 32 -46 43 -16 11 -30 24 -30 30 0
5 14 23 30 40 58 60 50 133 -21 185 -50 36 -92 39 -113 8z"/>
<path d="M3818 2643 c-23 -26 -23 -330 -1 -355 9 -10 22 -18 29 -18 25 0 31
36 32 185 1 187 -15 238 -60 188z"/>
<path d="M3946 2641 c-21 -23 -11 -50 23 -57 63 -13 72 -22 69 -62 -3 -35 -6
-38 -48 -48 -55 -13 -63 -39 -24 -80 14 -16 38 -42 53 -59 53 -59 67 -68 90
-55 33 17 25 44 -26 90 l-48 41 35 30 c32 28 35 34 35 87 0 63 -14 86 -72 116
-42 21 -66 20 -87 -3z"/>
<path d="M2017 2632 c-15 -16 -15 -20 -2 -40 20 -27 81 -40 101 -21 23 24 6
57 -35 69 -47 13 -45 13 -64 -8z"/>
<path d="M1855 2607 c-82 -82 -6 -177 142 -177 39 0 73 -19 73 -40 0 -5 -14
-18 -31 -30 -38 -28 -37 -63 3 -68 18 -2 37 6 59 26 28 25 34 37 34 70 0 69
-65 112 -168 112 -20 0 -45 8 -58 20 l-24 20 34 28 c40 34 40 65 -2 70 -21 3
-36 -5 -62 -31z"/>
<path d="M963 2514 c-9 -4 -13 -36 -13 -111 0 -89 3 -108 18 -119 45 -35 60 1
53 131 -5 91 -8 100 -26 102 -11 1 -26 -1 -32 -3z"/>
<path d="M1350 2473 c-13 -27 -39 -72 -58 -101 -31 -48 -33 -56 -22 -78 8 -13
19 -24 25 -24 14 0 45 32 45 47 0 24 40 46 74 40 55 -9 78 1 74 32 -3 22 -9
27 -41 31 -43 6 -43 6 -27 42 16 35 7 58 -23 58 -18 0 -29 -11 -47 -47z"/>
<path d="M3020 2501 c-44 -9 -60 -18 -60 -36 0 -38 122 -48 144 -12 9 15 7 22
-13 38 -13 10 -26 18 -30 18 -3 -1 -22 -4 -41 -8z"/>
<path d="M2558 2399 c-27 -16 -22 -34 26 -83 45 -48 70 -57 80 -30 13 33 5 53
-34 88 -44 39 -47 40 -72 25z"/>
<path d="M1833 2364 c-21 -9 -15 -52 8 -64 11 -6 39 -12 62 -13 38 -2 42 0 45
24 2 14 -3 31 -10 37 -16 13 -87 24 -105 16z"/>
<path d="M3050 2350 c-91 -7 -113 -26 -72 -63 28 -26 143 -24 167 3 38 42 -2
68 -95 60z"/>
</g>
</svg>
